
SongBrinstarSQ1:
    SongRepeatSetup $2
        SongNoteLength $4 ;1 1/2 seconds
        SongNote "B3"
        SongNote "C4"
    SongRepeat
    SongRepeatSetup $3
        SongNoteLength $3 ;3/4 seconds
        SongNote "B3"
        SongNote "D4"
        SongNote "C4"
        SongNote "F4"
    SongRepeat
    SongNoteLength $4 ;1 1/2 seconds
    SongNote "B3"
    SongNoteLength $3 ;3/4 seconds
    SongNote "C4"
    SongNote "D4"
    SongRepeatSetup $3
        SongNoteLength $6 ;1 3/16 seconds
        SongNote "E4"
        SongNoteLength $9 ;1/8 seconds
        SongNote "C4"
        SongNote "G3"
        SongNote "C4"
        SongNoteLength $3 ;3/4 seconds
        SongNote "F4"
        SongNote "D4"
    SongRepeat
    SongNoteLength $4 ;1 1/2 seconds
    SongNote "E4"
    SongNote "E4"
    SongNoteLength $2 ;3/8 seconds
    SongNote "F4"
    SongNote "C4"
    SongNote "A3"
    SongNoteLength $9 ;1/8 seconds
    SongNote "C4"
    SongNote "A#3"
    SongNote "C4"
    SongNoteLength $2 ;3/8 seconds
    SongNote "D4"
    SongNote "F4"
    SongNoteLength $3 ;3/4 seconds
    SongNote "C4"
    SongNoteLength $2 ;3/8 seconds
    SongNote "D#4"
    SongNote "A3"
    SongNote "F3"
    SongNoteLength $9 ;1/8 seconds
    SongNote "C3"
    SongNote "A#3"
    SongNote "C3"
    SongNoteLength $2 ;3/8 seconds
    SongNote "D3"
    SongNote "F3"
    SongNote "A#3"
    SongNoteLength $9 ;1/8 seconds
    SongNote "C3"
    SongNote "F3"
    SongNote "A3"
    SongNoteLength $3 ;3/4 seconds
    SongNote "B3"
    SongNote "A3"
    SongNote "G3"
    SongNote "D4"
    SongNoteLength $2 ;3/8 seconds
    SongNote "D#4"
    SongNote "F4"
    SongNote "Ab3"
    SongNoteLength $9 ;1/8 seconds
    SongNote "G3"
    SongNote "F3"
    SongNote "D#3"
    SongNoteLength $2 ;3/8 seconds
    SongNote "F3"
    SongNote "A#3"
    SongNote "G3"
    SongNoteLength $9 ;1/8 seconds
    SongNote "F3"
    SongNote "A#4"
    SongNote "D4"
    SongNoteLength $4 ;1 1/2 seconds
    SongNote "D4"
    SongNoteLength $3 ;3/4 seconds
    SongNote "B3"
    SongNote "G3"
    SongEnd

SongBrinstarSQ2:
    SongRepeatSetup $2
        SongNoteLength $2 ;3/8 seconds
        SongNote "G2"
        SongNoteLength $9 ;1/8 seconds
        SongNote "G2"
        SongNote "D2"
        SongNote "G2"
        SongNoteLength $2 ;3/8 seconds
        SongNote "G2"
        SongNoteLength $9 ;1/8 seconds
        SongNote "G2"
        SongNote "D2"
        SongNote "G2"
        SongNoteLength $2 ;3/8 seconds
        SongNote "A#2"
        SongNoteLength $9 ;1/8 seconds
        SongNote "A#2"
        SongNote "F2"
        SongNote "A#2"
        SongNoteLength $2 ;3/8 seconds
        SongNote "A#2"
        SongNoteLength $9 ;1/8 seconds
        SongNote "A#2"
        SongNote "F2"
        SongNote "A#2"
    SongRepeat
    SongRepeatSetup $3
        SongNoteLength $4 ;1 1/2 seconds
        SongNote "G4"
        SongNoteLength $6 ;1 3/16 seconds
        SongNote "A#4"
        SongNoteLength $0 ;3/32 seconds
        SongNote "A4"
        SongNote "A#4"
        SongNote "A4"
        SongNote "F4"
    SongRepeat
    SongNoteLength $4 ;1 1/2 seconds
    SongNote "G4"
    SongNote "G4"
    SongRepeatSetup $3
        SongNoteLength $6 ;1 3/16 seconds
        SongNote "C5"
        SongNoteLength $2 ;3/8 seconds
        SongNote "G4"
        SongNoteLength $6 ;1 3/16 seconds
        SongNote "A#4"
        SongNoteLength $0 ;3/32 seconds
        SongNote "A4"
        SongNote "A#4"
        SongNote "A4"
        SongNote "F4"
    SongRepeat
    SongNoteLength $4 ;1 1/2 seconds
    SongNote "G4"
    SongNote "G3"
    SongNoteLength $6 ;1 3/16 seconds
    SongNote "A4"
    SongNoteLength $9 ;1/8 seconds
    SongNote "A4"
    SongNote "G4"
    SongNote "A4"
    SongNoteLength $3 ;3/4 seconds
    SongNote "A#4"
    SongNoteLength $2 ;3/8 seconds
    SongNote "F4"
    SongNoteLength $9 ;1/8 seconds
    SongNote "C4"
    SongNote "F4"
    SongNote "G4"
    SongNoteLength $6 ;1 3/16 seconds
    SongNote "A4"
    SongNoteLength $9 ;1/8 seconds
    SongNote "A4"
    SongNote "G4"
    SongNote "A4"
    SongNoteLength $3 ;3/4 seconds
    SongNote "A#4"
    SongNoteLength $2 ;3/8 seconds
    SongNote "F4"
    SongNoteLength $9 ;1/8 seconds
    SongNote "F4"
    SongNote "A#4"
    SongNote "C5"
    SongNoteLength $4 ;1 1/2 seconds
    SongNote "D5"
    SongNoteLength $3 ;3/4 seconds
    SongNote "C5"
    SongNote "B4"
    SongNoteLength $6 ;1 3/16 seconds
    SongNote "C5"
    SongNoteLength $9 ;1/8 seconds
    SongNote "D#5"
    SongNote "D5"
    SongNote "C5"
    SongNoteLength $3 ;3/4 seconds
    SongNote "D5"
    SongNoteLength $2 ;3/8 seconds
    SongNote "A#4"
    SongNoteLength $9 ;1/8 seconds
    SongNote "A#4"
    SongNote "D5"
    SongNote "F5"
    SongNoteLength $4 ;1 1/2 seconds
    SongNote "F#5"
    SongNote "F#5"

SongBrinstarTri:
    SongRepeatSetup $4
        SongNoteLength $4 ;1 1/2 seconds
        SongRest
    SongRepeat
    SongRepeatSetup $3
        SongNoteLength $2 ;3/8 seconds
        SongNote "G3"
        SongNoteLength $9 ;1/8 seconds
        SongNote "G3"
        SongNote "G4"
        SongNote "D4"
        SongNoteLength $2 ;3/8 seconds
        SongNote "G3"
        SongNoteLength $9 ;1/8 seconds
        SongNote "G3"
        SongNote "D4"
        SongNote "G3"
        SongNoteLength $2 ;3/8 seconds
        SongNote "A#3"
        SongNoteLength $9 ;1/8 seconds
        SongNote "A#3"
        SongNote "F4"
        SongNote "A#3"
        SongNoteLength $2 ;3/8 seconds
        SongNote "A#3"
        SongNoteLength $9 ;1/8 seconds
        SongNote "A#3"
        SongNote "F4"
        SongNote "A#3"
    SongRepeat
    SongRepeatSetup $4
        SongNoteLength $2 ;3/8 seconds
        SongNote "G3"
        SongNoteLength $9 ;1/8 seconds
        SongNote "D4"
        SongNote "G3"
        SongNote "G3"
    SongRepeat
    SongRepeatSetup $10
        SongNoteLength $9 ;1/8 seconds
        SongNote "C3"
        SongNote "G3"
        SongNote "C3"
        SongNoteLength $2 ;3/8 seconds
        SongNote "C3"
    SongRepeat
    SongRepeatSetup $2
        SongNoteLength $2 ;3/8 seconds
        SongNote "D#3"
        SongNoteLength $9 ;1/8 seconds
        SongNote "D#3"
        SongNote "C3"
        SongNote "D#3"
        SongNoteLength $2 ;3/8 seconds
        SongNote "D#3"
        SongNoteLength $9 ;1/8 seconds
        SongNote "D#3"
        SongNote "C3"
        SongNote "D#3"
        SongNoteLength $2 ;3/8 seconds
        SongNote "D3"
        SongNoteLength $9 ;1/8 seconds
        SongNote "D3"
        SongNote "A#2"
        SongNote "D3"
        SongNoteLength $2 ;3/8 seconds
        SongNote "D3"
        SongNoteLength $9 ;1/8 seconds
        SongNote "D3"
        SongNote "A#2"
        SongNote "D3"
    SongRepeat
    SongNoteLength $2 ;3/8 seconds
    SongNote "G3"
    SongNote "A2"
    SongNote "B2"
    SongNote "C3"
    SongNote "D3"
    SongNote "E3"
    SongNote "F#3"
    SongNote "G3"
    SongNoteLength $2 ;3/8 seconds
    SongNote "Ab3"
    SongNoteLength $9 ;1/8 seconds
    SongNote "Ab3"
    SongNote "Eb3"
    SongNote "C3"
    SongNoteLength $2 ;3/8 seconds
    SongNote "Ab2"
    SongNoteLength $9 ;1/8 seconds
    SongNote "C4"
    SongNote "Bb3"
    SongNote "Ab3"
    SongNoteLength $2 ;3/8 seconds
    SongNote "Eb3"
    SongNote "D3"
    SongNote "C3"
    SongNote "Bb2"
    SongNote "A3"
    SongNote "A3"
    SongNote "A3"
    SongNote "A3"
    SongRepeatSetup $C
        SongNoteLength $9 ;1/8 seconds
        SongNote "A3"
    SongRepeat

SongBrinstarNoise:
    SongRepeatSetup $28
        SongNoteLength $2 ;3/8 seconds
        .byte $04
        .byte $04
        .byte $04
        SongNoteLength $9 ;1/8 seconds
        .byte $04
        .byte $04
        .byte $04
    SongRepeat

