
SongEndFDS: ;($CC0F)
    SongRepeatSetup $2
        SongNoteLength $4 ;7/8 seconds
        SongNote "A3"
        SongNote "C4"
        SongNote "B3"
        SongNote "A#3"
    SongRepeat
    SongNote "A3"
    SongNote "A3"
    SongRepeatSetup $2
        SongNoteLength $0 ;1/4 seconds
        SongNote "F#4"
        SongNote "A4"
        SongNote "D5"
        SongNote "F#5"
        SongNoteLength $2 ;7/32 seconds
        SongNote "A5"
        SongNote "G5"
        SongNote "F#5"
        SongNoteLength $4 ;7/8 seconds
        SongNote "D5"
        SongNoteLength $0 ;1/4 seconds
        SongNote "E4"
        SongNote "F#4"
        SongNote "G4"
        SongNote "A4"
        SongNoteLength $2 ;7/32 seconds
        SongNote "D5"
        SongNote "A4"
        SongNoteLength $0 ;1/4 seconds
        SongNote "G5"
        SongNote "F#5"
        SongNote "D5"
        SongNote "A4"
        SongNoteLength $3 ;7/16 seconds
        SongNote "G4"
        SongNote "D5"
    SongRepeat
    SongRepeatSetup $2
        SongNoteLength $3 ;7/16 seconds
        SongNote "C#5"
        SongNoteLength $2 ;7/32 seconds
        SongNote "D5"
        SongNote "A4"
        SongNote "F#5"
        SongNote "E5"
        SongNote "G5"
        SongNote "F#5"
        SongNoteLength $1 ;7/64 seconds
        SongNote "E5"
        SongNote "D5"
        SongNote "A#4"
        SongNote "G4"
        SongNoteLength $2 ;7/32 seconds
        SongNote "F#4"
        SongNote "D5"
        SongNoteLength $1 ;7/64 seconds
        SongNote "Ab4"
        SongNote "B4"
        SongNoteLength $2 ;7/32 seconds
        SongNote "E5"
        SongNote "D5"
        SongNote "E5"
    SongRepeat
    SongRepeatSetup $4
        SongNoteLength $3 ;7/16 seconds
        SongNote "A3"
        SongNote "C4"
        SongNote "B3"
        SongNote "A#3"
    SongRepeat
    SongNoteLength $4 ;7/8 seconds
    SongNote "D3"
    SongRepeatSetup $3
        SongRest
    SongRepeat
    SongNoteLength $5 ;1 13/16 seconds
    SongNote "D4"
    SongNoteLength $1 ;7/64 seconds
    SongNote "A3"
    SongNoteLength $6 ;21/32 seconds
    SongNote "D3"
    SongNoteLength $2 ;7/32 seconds
    SongRest
    SongNoteLength $5 ;1 13/16 seconds
    SongNote "G3"
    SongNoteLength $1 ;7/64 seconds
    SongNote "F#3"
    SongNoteLength $8 ;21/64 seconds
    SongNote "D2"
    SongNote "A2"
    SongNote "D3"
    SongNoteLength $9 ;9/32 seconds
    SongRest
    SongNoteLength $8 ;21/64 seconds
    SongNote "F#3"
    SongNote "A3"
    SongNote "D4"
    SongNoteLength $9 ;9/32 seconds
    SongRest
    SongNoteLength $5 ;1 13/16 seconds
    SongNote "E4"
    SongNoteLength $1 ;7/64 seconds
    SongNote "A#3"
    SongNoteLength $3 ;7/16 seconds
    SongNote "G3"
    SongNote "A3"
    SongNoteLength $5 ;1 13/16 seconds
    SongNote "A3"
    SongNoteLength $1 ;7/64 seconds
    SongRest
    SongNoteLength $8 ;21/64 seconds
    SongNote "G3"
    SongNote "F#3"
    SongNote "D3"
    SongNoteLength $9 ;9/32 seconds
    SongRest
    SongNoteLength $8 ;21/64 seconds
    SongNote "E3"
    SongNote "D3"
    SongNote "E3"
    SongNoteLength $9 ;9/32 seconds
    SongRest
    SongNoteLength $4 ;7/8 seconds
    SongNote "D3"
    SongNoteLength $8 ;21/64 seconds
    SongNote "G3"
    SongNote "A#3"
    SongNote "D4"
    SongNoteLength $9 ;9/32 seconds
    SongRest
    SongNoteLength $8 ;21/64 seconds
    SongNote "G4"
    SongNote "A#4"
    SongNote "D5"
    SongNoteLength $9 ;9/32 seconds
    SongRest
    SongRepeatSetup $8
        SongNoteLength $0 ;1/4 seconds
        SongNote "F#4"
        SongNote "A4"
        SongNote "F#4"
        SongNote "A4"
        SongNote "A4"
        SongNote "B4"
        SongNote "A4"
        SongNote "B4"
        SongNote "D5"
        SongNote "E5"
        SongNote "D5"
        SongNote "E5"
        SongNote "E5"
        SongNote "F#5"
        SongNote "E5"
        SongNote "F#5"
    SongRepeat
    SongRepeatSetup $2
        SongNoteLength $4 ;7/8 seconds
        SongNote "A3"
        SongNoteLength $3 ;7/16 seconds
        SongNote "D4"
        SongNoteLength $5 ;1 13/16 seconds
        SongNote "C#4"
        SongNoteLength $1 ;7/64 seconds
        SongNote "B3"
        SongNoteLength $4 ;7/8 seconds
        SongNote "A3"
        SongNoteLength $3 ;7/16 seconds
        SongNote "D3"
        SongNoteLength $5 ;1 13/16 seconds
        SongNote "G3"
        SongNoteLength $1 ;7/64 seconds
        SongNote "F#3"
    SongRepeat
    SongNoteLength $4 ;7/8 seconds
    SongNote "A3"
    SongNoteLength $8 ;21/64 seconds
    SongNote "C3"
    SongNote "G3"
    SongNote "C4"
    SongNoteLength $9 ;9/32 seconds
    SongRest
    SongNoteLength $8 ;21/64 seconds
    SongNote "D3"
    SongNote "G3"
    SongNote "C4"
    SongNoteLength $9 ;9/32 seconds
    SongRest
    SongNoteLength $4 ;7/8 seconds
    SongNote "D4"
    SongNoteLength $8 ;21/64 seconds
    SongNote "F4"
    SongNote "C4"
    SongNote "G3"
    SongNoteLength $9 ;9/32 seconds
    SongRest
    SongNoteLength $8 ;21/64 seconds
    SongNote "G4"
    SongNote "E4"
    SongNote "C4"
    SongNoteLength $9 ;9/32 seconds
    SongRest
    SongNoteLength $4 ;7/8 seconds
    SongNote "D4"
    SongNoteLength $2 ;7/32 seconds
    SongNote "D3"
    SongNote "A3"
    SongNote "G3"
    SongNote "C4"
    SongRepeatSetup $2
        SongNoteLength $0 ;1/4 seconds
        SongNote "E4"
        SongNote "E4"
        SongNote "E4"
        SongRest
        SongRest
        SongRest
        SongNote "E4"
        SongNote "E4"
        SongNote "E4"
        SongRest
        SongNote "E4"
        SongNote "E4"
        SongNote "E4"
        SongNote "E4"
        SongNote "E4"
        SongRest
    SongRepeat
    SongNoteLength $4 ;7/8 seconds
    SongNote "E4"
    SongNoteLength $2 ;7/32 seconds
    SongRest
    SongNoteLength $0 ;1/4 seconds
    SongNote "D3"
    SongRest
    SongNote "D3"
    SongNote "D3"
    SongNoteLength $2 ;7/32 seconds
    SongNote "D2"



SongEndTri: ;($CCFE)
    SongRepeatSetup $A
        SongNoteLength $0 ;1/4 seconds
        SongNote "A3"
        SongNote "A3"
        SongNote "A3"
        SongRest
        SongRest
        SongRest
        SongNote "A3"
        SongNote "A3"
        SongNote "A3"
        SongRest
        SongNote "A3"
        SongNote "A3"
        SongNote "A3"
        SongNote "A3"
        SongNote "A3"
        SongRest
    SongRepeat
    SongRepeatSetup $2
        SongNoteLength $2 ;7/32 seconds
        SongNote "D4"
        SongNote "D4"
        SongNote "C#4"
        SongNote "C#4"
        SongNote "B3"
        SongNote "B3"
        SongNote "A3"
        SongNote "A3"
        SongNote "G3"
        SongNote "G3"
        SongNote "F#3"
        SongNote "F#3"
        SongNote "E3"
        SongNote "E3"
        SongNote "A3"
        SongNote "A3"
    SongRepeat
    SongRepeatSetup $2
        SongNote "G3"
        SongNote "G3"
        SongNote "F#3"
        SongNote "F#3"
        SongNote "C4"
        SongNote "C4"
        SongNote "B3"
        SongNote "B3"
        SongNote "A#3"
        SongNote "A#3"
        SongNote "A3"
        SongNote "A3"
        SongNote "Ab3"
        SongNote "Ab3"
        SongNote "A3"
        SongNote "A3"
    SongRepeat
    SongRepeatSetup $8
        SongNoteLength $0 ;1/4 seconds
        SongNote "D3"
        SongNote "D3"
        SongNote "D3"
        SongRest
        SongRest
        SongRest
        SongNote "D3"
        SongNote "D3"
        SongNote "D3"
        SongRest
        SongNote "D3"
        SongNote "D3"
        SongNote "D3"
        SongNote "D3"
        SongNote "D3"
        SongRest
    SongRepeat
    SongRepeatSetup $18
        SongNoteLength $A ;1/32 seconds
        SongNote "D6"
        SongRest
        SongNote "D6"
        SongRest
        SongNoteLength $9 ;9/32 seconds
        SongRest
        SongNoteLength $A ;1/32 seconds
        SongNote "A6"
        SongRest
        SongNote "A6"
        SongRest
        SongNoteLength $9 ;9/32 seconds
        SongRest
        SongNoteLength $A ;1/32 seconds
        SongNote "D7"
        SongRest
        SongNote "D7"
        SongRest
        SongNoteLength $9 ;9/32 seconds
        SongRest
        SongNoteLength $A ;1/32 seconds
        SongNote "A6"
        SongRest
        SongNote "A6"
        SongRest
        SongNoteLength $9 ;9/32 seconds
        SongRest
    SongRepeat
    SongRepeatSetup $4
        SongNoteLength $1 ;7/64 seconds
        SongNote "D4"
        SongNote "D4"
        SongNote "D4"
        SongNote "D4"
        SongRest
        SongNote "F#3"
        SongNote "F#3"
        SongNote "F#3"
        SongNote "E3"
        SongNote "E3"
        SongNote "E3"
        SongNote "E3"
        SongNote "A3"
        SongNote "A3"
        SongNote "A3"
        SongNote "A3"
        SongRest
        SongNote "F#3"
        SongNote "F#3"
        SongNote "F#3"
        SongNote "F#3"
        SongNote "F#3"
        SongNote "F#3"
        SongNote "F#3"
        SongNoteLength $8 ;21/64 seconds
        SongNote "G3"
        SongNote "D3"
        SongNote "E3"
        SongNoteLength $9 ;9/32 seconds
        SongRest
        SongNoteLength $8 ;21/64 seconds
        SongNote "A#3"
        SongNote "A3"
        SongNote "G3"
        SongNoteLength $9 ;9/32 seconds
        SongRest
    SongRepeat
    SongRepeatSetup $3
        SongNoteLength $0 ;1/4 seconds
        SongNote "D3"
        SongNote "D3"
        SongNote "D3"
        SongRest
        SongRest
        SongRest
        SongNote "D3"
        SongNote "D3"
        SongNote "D3"
        SongRest
        SongNote "D3"
        SongNote "D3"
        SongNote "D3"
        SongNote "D3"
        SongNote "D3"
        SongRest
        SongNote "A#2"
        SongNote "A#2"
        SongNote "A#2"
        SongRest
        SongRest
        SongRest
        SongNote "A#2"
        SongNote "A#2"
        SongNote "C3"
        SongRest
        SongNote "C3"
        SongNote "C3"
        SongNote "C3"
        SongNote "C3"
        SongNote "C3"
        SongRest
    SongRepeat
    SongRepeatSetup $2
        SongNote "D3"
        SongNote "D3"
        SongNote "D3"
        SongRest
        SongRest
        SongRest
        SongNote "D3"
        SongNote "D3"
        SongNote "D3"
        SongRest
        SongNote "D3"
        SongNote "D3"
        SongNote "D3"
        SongNote "D3"
        SongNote "D3"
        SongRest
    SongRepeat
    SongNoteLength $4 ;7/8 seconds
    SongNote "D3"
    SongNoteLength $2 ;7/32 seconds
    SongRest
    SongNoteLength $0 ;1/4 seconds
    SongNote "D3"
    SongRest
    SongNote "D3"
    SongNote "D3"
    SongNoteLength $2 ;7/32 seconds
    SongNote "D3"



SongEndSQ1: ;($CDCF)
    SongRepeatSetup $A
        SongNoteLength $0
        SongNote "A2"
        SongNote "A2"
        SongNote "A2"
        SongRest
        SongRest
        SongRest
        SongNote "A2"
        SongNote "A2"
        SongNote "A2"
        SongRest
        SongNote "A2"
        SongNote "A2"
        SongNote "A2"
        SongNote "A2"
        SongNote "A2"
        SongRest
    SongRepeat
    SongRepeatSetup $2
        SongNoteLength $2
        SongNote "A3"
        SongNote "F#4"
        SongNote "E4"
        SongNote "C#4"
        SongNoteLength $0
        SongNote "F#3"
        SongNote "A3"
        SongNote "D4"
        SongNote "F#4"
        SongNoteLength $2
        SongNote "A4"
        SongNote "F#4"
        SongNote "D4"
        SongNoteLength $5
        SongNote "B3"
        SongNoteLength $1
        SongNote "D4"
        SongNoteLength $0
        SongNote "E3"
        SongNote "F#3"
        SongNote "G3"
        SongNote "A3"
        SongNoteLength $2
        SongNote "A3"
        SongNoteLength $5
        SongNote "B3"
        SongNoteLength $1
        SongNote "D4"
        SongNoteLength $2
        SongNote "G3"
        SongNote "G4"
    SongRepeat
    SongNoteLength $2
    SongNote "G2"
    SongNote "G2"
    SongNote "F#2"
    SongNote "F#2"
    SongNote "C3"
    SongNote "C3"
    SongNote "B2"
    SongNote "B2"
    SongNote "A#2"
    SongNote "A#2"
    SongNote "A2"
    SongNote "A2"
    SongNote "G#2"
    SongNote "G#2"
    SongNote "A2"
    SongNote "A2"
    SongRepeatSetup $2
        SongNoteLength $0
        SongNote "A3"
        SongNote "A3"
        SongNote "A3"
        SongRest
        SongRest
        SongRest
        SongNote "A3"
        SongNote "A3"
        SongNote "A3"
        SongRest
        SongNote "A3"
        SongNote "A3"
        SongNote "A3"
        SongNote "A3"
        SongNote "A3"
        SongRest
    SongRepeat
    SongRepeatSetup $2
        SongNote "D4"
        SongNote "D4"
        SongNote "D4"
        SongRest
        SongRest
        SongRest
        SongNote "D4"
        SongNote "D4"
        SongNote "D4"
        SongRest
        SongNote "D4"
        SongNote "D4"
        SongNote "D4"
        SongNote "D4"
        SongNote "D4"
        SongRest
    SongRepeat
    SongRepeatSetup $4
        SongNoteLength $3
        SongNote "F#3"
        SongNote "G3"
        SongNote "G3"
        SongNote "G3"
    SongRepeat
    SongRepeatSetup $6
        SongNoteLength $2
        SongNote "A6"
        SongNote "G6"
        SongNote "F#6"
        SongNote "E6"
        SongNote "G6"
        SongNote "F#6"
        SongNote "D6"
        SongNote "E6"
    SongRepeat
    SongRepeatSetup $2
        SongNoteLength $1
        SongNote "D3"
        SongNote "D3"
        SongNote "D3"
        SongNote "D3"
        SongRest
        SongNote "F#2"
        SongNote "F#2"
        SongNote "F#2"
        SongNote "E2"
        SongNote "E2"
        SongNote "E2"
        SongNote "E2"
        SongNote "A2"
        SongNote "A2"
        SongNote "A2"
        SongNote "A2"
        SongRest
        SongNote "F#2"
        SongNote "F#2"
        SongNote "F#2"
        SongNote "F#2"
        SongNote "F#2"
        SongNote "F#2"
        SongRest
        SongNoteLength $8
        SongNote "G2"
        SongNote "D2"
        SongNote "E2"
        SongNoteLength $9
        SongRest
        SongNoteLength $8
        SongNote "A#2"
        SongNote "A2"
        SongNote "G2"
        SongNoteLength $9
        SongRest
    SongRepeat
    SongRepeatSetup $8
        SongNoteLength $0
        SongNote "F#4"
        SongNote "G4"
        SongNote "F#4"
        SongNote "G4"
        SongNote "A4"
        SongNote "B4"
        SongNote "A4"
        SongNote "B4"
        SongNote "D5"
        SongNote "E5"
        SongNote "D5"
        SongNote "E5"
        SongNote "E5"
        SongNote "F#5"
        SongNote "E5"
        SongNote "F#5"
    SongRepeat
    SongRepeatSetup $3
        SongNote "D3"
        SongNote "D3"
        SongNote "D3"
        SongRest
        SongRest
        SongRest
        SongNote "D3"
        SongNote "D3"
        SongNote "D3"
        SongRest
        SongNote "D3"
        SongNote "D3"
        SongNote "D3"
        SongNote "D3"
        SongNote "D3"
        SongRest
        SongNote "A#2"
        SongNote "A#2"
        SongNote "A#2"
        SongRest
        SongRest
        SongRest
        SongNote "A#2"
        SongNote "A#2"
        SongNote "C3"
        SongRest
        SongNote "C3"
        SongNote "C3"
        SongNote "C3"
        SongNote "C3"
        SongNote "C3"
        SongRest
    SongRepeat
    SongRepeatSetup $2
        SongNote "D3"
        SongNote "D3"
        SongNote "D3"
        SongRest
        SongRest
        SongRest
        SongNote "D3"
        SongNote "D3"
        SongNote "D3"
        SongRest
        SongNote "D3"
        SongNote "D3"
        SongNote "D3"
        SongNote "D3"
        SongNote "D3"
        SongRest
    SongRepeat
    SongNoteLength $4
    SongNote "D2"
    SongNoteLength $2
    SongRest
    SongNoteLength $0
    SongNote "D2"
    SongRest
    SongNote "D2"
    SongNote "D2"
    SongNoteLength $2
    SongNote "D2"
    SongEnd



SongEndSQ2: ;($CEC5)
    SongRepeatSetup $2
        SongNoteLength $4 ;7/8 seconds
        SongNote "E3"
        SongNote "A3"
        SongNote "Ab3"
        SongNote "G3"
    SongRepeat
    SongNote "E3"
    SongNote "E3"
    SongRepeatSetup $2
        SongNoteLength $0 ;1/4 seconds
        SongNote "D4"
        SongNote "F#4"
        SongNote "A4"
        SongNote "D5"
        SongNoteLength $2 ;7/32 seconds
        SongNote "F#5"
        SongNote "E5"
        SongNote "D5"
        SongNoteLength $3 ;7/16 seconds
        SongNote "A4"
        SongNote "F#4"
        SongNoteLength $3 ;7/16 seconds
        SongNote "B4"
        SongNoteLength $2 ;7/32 seconds
        SongNote "D4"
        SongNoteLength $1 ;7/64 seconds
        SongNote "D5"
        SongNoteLength $0 ;1/4 seconds
        SongNote "A4"
        SongNote "F#4"
        SongNoteLength $3 ;7/16 seconds
        SongNote "E4"
        SongNote "B4"
    SongRepeat
    SongRepeatSetup $2
        SongNoteLength $3 ;7/16 seconds
        SongNote "E4"
        SongNoteLength $2 ;7/32 seconds
        SongNote "F#4"
        SongNote "D4"
        SongNote "D4"
        SongNote "C4"
        SongNote "E4"
        SongNote "D4"
        SongNote "A#4"
        SongNote "E4"
        SongNote "D4"
        SongNote "A4"
        SongNoteLength $1 ;7/64 seconds
        SongNote "F4"
        SongNote "Ab4"
        SongNoteLength $2 ;7/32 seconds
        SongNote "B4"
        SongNote "G4"
        SongNote "G4"
    SongRepeat
    SongRepeatSetup $8
        SongNoteLength $2 ;7/32 seconds
        SongNote "D4"
        SongNote "A4"
        SongNote "D5"
        SongNote "A4"
    SongRepeat
    SongRepeatSetup $3
        SongNoteLength $4 ;7/8 seconds
        SongNote "D5"
        SongNoteLength $3 ;7/16 seconds
        SongNote "E5"
        SongNote "G5"
        SongNoteLength $4 ;7/8 seconds
        SongNote "F#5"
        SongNoteLength $3 ;7/16 seconds
        SongNote "G5"
        SongNote "A#5"
    SongRepeat
    SongRepeatSetup $8
        SongNoteLength $1 ;7/64 seconds
        SongNote "A5"
        SongNote "A4"
        SongNote "G5"
        SongNote "A4"
        SongNote "F#5"
        SongNote "A4"
        SongNote "E5"
        SongNote "A4"
        SongNote "G5"
        SongNote "G4"
        SongNote "F#5"
        SongNote "G4"
        SongNote "D5"
        SongNote "G4"
        SongNote "E5"
        SongNote "G4"
    SongRepeat
    SongRepeatSetup $3
        SongNoteLength $0 ;1/4 seconds
        SongNote "A4"
        SongNote "A4"
        SongNote "A4"
        SongRest
        SongRest
        SongRest
        SongNote "A4"
        SongNote "A4"
        SongNote "A4"
        SongRest
        SongNote "A4"
        SongNote "A4"
        SongNote "A4"
        SongNote "A4"
        SongNote "A4"
        SongRest
        SongNote "F4"
        SongNote "F4"
        SongNote "F4"
        SongRest
        SongRest
        SongRest
        SongNote "F4"
        SongNote "F4"
        SongNote "G4"
        SongRest
        SongNote "G4"
        SongNote "G4"
        SongNote "G4"
        SongNote "G4"
        SongNote "G4"
        SongRest
    SongRepeat
    SongRepeatSetup $2 ;7/32 seconds
        SongNote "A4"
        SongNote "A4"
        SongNote "A4"
        SongRest
        SongRest
        SongRest
        SongNote "A4"
        SongNote "A4"
        SongNote "A4"
        SongRest
        SongNote "A4"
        SongNote "A4"
        SongNote "A4"
        SongNote "A4"
        SongNote "A4"
        SongRest
    SongRepeat
    SongNoteLength $4 ;7/8 seconds
    SongNote "A3"
    SongNoteLength $2 ;7/32 seconds
    SongRest
    SongNoteLength $0 ;1/4 seconds
    SongNote "A3"
    SongRest
    SongNote "A3"
    SongNote "A3"
    SongNoteLength $2 ;7/32 seconds
    SongNote "A3"



SongEndNoise: ;($CF64)
    SongRepeatSetup $A
        SongNoteLength $0 ;1/4 seconds
        .byte DrumBeat01SFXData - SFXData
        .byte DrumBeat01SFXData - SFXData
        .byte DrumBeat01SFXData - SFXData
        .byte DrumBeat00SFXData - SFXData
        .byte DrumBeat00SFXData - SFXData
        .byte DrumBeat00SFXData - SFXData
        .byte DrumBeat01SFXData - SFXData
        .byte DrumBeat01SFXData - SFXData
        .byte DrumBeat01SFXData - SFXData
        .byte DrumBeat00SFXData - SFXData
        .byte DrumBeat01SFXData - SFXData
        .byte DrumBeat01SFXData - SFXData
        .byte DrumBeat01SFXData - SFXData
        .byte DrumBeat01SFXData - SFXData
        .byte DrumBeat01SFXData - SFXData
        .byte DrumBeat00SFXData - SFXData
    SongRepeat
    SongRepeatSetup $20
        SongNoteLength $2 ;7/32 seconds
        .byte DrumBeat01SFXData - SFXData
        .byte DrumBeat02SFXData - SFXData
    SongRepeat
    SongRepeatSetup $8
        SongNoteLength $1 ;7/64 seconds
        .byte DrumBeat01SFXData - SFXData
        SongNoteLength $0 ;1/4 seconds
        .byte DrumBeat01SFXData - SFXData
        .byte DrumBeat01SFXData - SFXData
        SongNoteLength $1 ;7/64 seconds
        .byte DrumBeat01SFXData - SFXData
        SongNoteLength $0 ;1/4 seconds
        .byte DrumBeat01SFXData - SFXData
        .byte DrumBeat01SFXData - SFXData
        SongNoteLength $1 ;7/64 seconds
        .byte DrumBeat01SFXData - SFXData
        SongNoteLength $0 ;1/4 seconds
        .byte DrumBeat01SFXData - SFXData
        .byte DrumBeat01SFXData - SFXData
        SongNoteLength $1 ;7/64 seconds
        .byte DrumBeat02SFXData - SFXData
        SongNoteLength $0 ;1/4 seconds
        .byte DrumBeat01SFXData - SFXData
        .byte DrumBeat01SFXData - SFXData
    SongRepeat
    SongRepeatSetup $10
        SongNoteLength $2 ;7/32 seconds
        .byte DrumBeat01SFXData - SFXData
    SongRepeat
    SongRepeatSetup $20
        SongNoteLength $1 ;7/64 seconds
        .byte DrumBeat01SFXData - SFXData
        .byte DrumBeat01SFXData - SFXData
    SongRepeat
    SongRepeatSetup $20
        SongNoteLength $0 ;1/4 seconds
        .byte DrumBeat01SFXData - SFXData
        .byte DrumBeat01SFXData - SFXData
        SongNoteLength $1 ;7/64 seconds
        .byte DrumBeat02SFXData - SFXData
        SongNoteLength $0 ;1/4 seconds
        .byte DrumBeat03SFXData - SFXData
        .byte DrumBeat01SFXData - SFXData
        SongNoteLength $1 ;7/64 seconds
        .byte DrumBeat02SFXData - SFXData
    SongRepeat
    SongRepeatSetup $8
        SongNoteLength $0 ;1/4 seconds
        .byte DrumBeat01SFXData - SFXData
        .byte DrumBeat01SFXData - SFXData
        .byte DrumBeat01SFXData - SFXData
        .byte DrumBeat00SFXData - SFXData
        .byte DrumBeat00SFXData - SFXData
        .byte DrumBeat00SFXData - SFXData
        .byte DrumBeat01SFXData - SFXData
        .byte DrumBeat01SFXData - SFXData
        .byte DrumBeat01SFXData - SFXData
        .byte DrumBeat00SFXData - SFXData
        .byte DrumBeat01SFXData - SFXData
        .byte DrumBeat01SFXData - SFXData
        .byte DrumBeat01SFXData - SFXData
        .byte DrumBeat01SFXData - SFXData
        .byte DrumBeat01SFXData - SFXData
        .byte DrumBeat00SFXData - SFXData
    SongRepeat
    SongNoteLength $4 ;7/8 seconds
    .byte DrumBeat02SFXData - SFXData
    SongNoteLength $2 ;7/32 seconds
    .byte DrumBeat00SFXData - SFXData
    SongNoteLength $0 ;1/4 seconds
    .byte DrumBeat02SFXData - SFXData
    .byte DrumBeat00SFXData - SFXData
    .byte DrumBeat02SFXData - SFXData
    .byte DrumBeat02SFXData - SFXData
    SongNoteLength $2 ;7/32 seconds
    .byte DrumBeat02SFXData - SFXData

